# xmcd
#
# Track frame offsets: 
#        150
#        21380
#        44581
#        67573
#        81913
#        98259
#        109757
#        123505
#        144324
#        164634
#
# Disc length: 2567 seconds
#
# Revision: 0
# Processed by: cddbd v1.5.2PL0 Copyright (c) Steve Scherf et al.
# Submitted via: ExactAudioCopy v1.3
#
DISCID=7d0a050a
DTITLE=Buddy Guy and Junior Wells - The Real Blues
DYEAR=1999
DGENRE=Blues
TTITLE0=Buddy's Blues
TTITLE1=Blue Monday
TTITLE2=Every Day I Have The Blues
TTITLE3=Woman Blues
TTITLE4=(I Can't Get No) Satisfaction
TTITLE5=Messin' With The Kid
TTITLE6=No Use Cryin'
TTITLE7=Just To Be With You
TTITLE8=Junior's Shuffle
TTITLE9=Out Of Sight
EXTD=
EXTT0=
EXTT1=
EXTT2=
EXTT3=
EXTT4=
EXTT5=
EXTT6=
EXTT7=
EXTT8=
EXTT9=
PLAYORDER=
